<svg xmlns="http://www.w3.org/2000/svg" viewBox="0 0 64 64">
  <circle cx="32" cy="32" r="32" fill="#742F38"/>
  <circle cx="32" cy="32" r="29" fill="none" stroke="#BA9348" stroke-width="1.6"/>
  <!-- ribbon bow -->
  <g>
    <path d="M 32 19 C 26.5 14 20 15.5 20.5 20 C 21 23.5 27.5 24 32 19 Z" fill="#FFFEF9" fill-opacity="0.16" stroke="#FFFEF9" stroke-width="1.8"/>
    <path d="M 32 19 C 37.5 14 44 15.5 43.5 20 C 43 23.5 36.5 24 32 19 Z" fill="#FFFEF9" fill-opacity="0.16" stroke="#FFFEF9" stroke-width="1.8"/>
    <circle cx="32" cy="19" r="2.2" fill="#FFFEF9"/>
  </g>
  <g stroke="#FFFEF9" stroke-width="1.4" fill="none" stroke-linecap="round" opacity="0.85">
    <path d="M 30.5 21 C 28 27 27.5 30 27 33"/>
    <path d="M 33.5 21 C 36 27 36.5 30 37 33"/>
  </g>
  <!-- interlocked rings -->
  <g fill="none" stroke-linecap="round">
    <circle cx="27" cy="40" r="8" stroke="#DEC690" stroke-width="2.8"/>
    <circle cx="37" cy="40" r="8" stroke="#EBC3C9" stroke-width="2.4"/>
    <path d="M 31.8 33.6 A 8 8 0 0 1 34.6 38.4" stroke="#DEC690" stroke-width="2.8"/>
    <path d="M 27 30 L 29 32.2 L 27 34.4 L 25 32.2 Z" fill="#FFFEF9" stroke="#DEC690" stroke-width="1.2"/>
  </g>
</svg>
